<svg width="165" height="46" viewBox="0 0 165 46" fill="none" xmlns="http://www.w3.org/2000/svg">
<g clip-path="url(#clip0_28_554)">
<path d="M75.2998 3.80005C73.0998 3.80005 71.1998 5.20005 70.4998 7.30005C70.4998 7.40005 70.2998 7.80005 70.2998 7.80005L67.2998 21H74.2998C76.6998 21 78.6998 19.3 79.2998 16.9L82.2998 3.80005H75.2998Z" fill="#16B14B"/>
<path d="M63.7 0C61.4 0 59.4 1.6 58.8 3.7C58.8 3.9 58.7 4 58.7 4.2L54 24.8H61C63.4 24.8 65.4 23.1 66 20.9L70.7 0H63.7Z" fill="#F27024"/>
<path d="M50.2998 3.80005C47.9998 3.80005 46.0998 5.30005 45.3998 7.50005V7.60005L45.2998 8.10005L42.2998 21H49.4998C51.5998 21 53.4998 19.6 54.1998 17.6L54.4998 16.4L57.3998 3.90005H50.2998V3.80005Z" fill="#214497"/>
<path d="M49.0001 8.1001H48.9001C48.4001 8.1001 47.9001 8.3001 47.5001 8.6001C47.1001 8.9001 46.8001 9.4001 46.7001 9.7001L45.1001 16.7001H45.2001C45.7001 16.7001 46.2001 16.5001 46.6001 16.2001C47.0001 15.8001 47.3001 15.4001 47.4001 14.9001L47.8001 13.4001H51.0001C51.5001 13.4001 52.0001 13.2001 52.4001 12.9001C52.8001 12.5001 53.1001 12.1001 53.2001 11.6001V11.5001H48.2001L48.5001 10.1001H52.8001C53.3001 10.1001 53.8001 9.9001 54.2001 9.6001C54.6001 9.3001 54.9001 8.8001 55.0001 8.3001V8.2001L49.0001 8.1001Z" fill="white"/>
<path d="M66.7 8.5001C66.4 8.2001 66.1 8.1001 65.6 8.1001H59.5L57.5 16.7001H57.6C58.1 16.7001 58.6 16.5001 59 16.2001C59.4 15.8001 59.7 15.4001 59.8 14.9001L60.2 13.4001H64.4C64.9 13.4001 65.3 13.3001 65.8 13.0001C66.2 12.7001 66.5 12.1001 66.7 11.6001L67 9.9001C67 9.8001 67 9.6001 67 9.5001C67.1 9.1001 66.9 8.8001 66.7 8.5001ZM64.8 11.4001H60.7L61 10.0001H65.1L64.8 11.4001Z" fill="white"/>
<path d="M79.1 8.5001C78.8 8.2001 78.5 8.1001 78 8.1001H75.3H75.1H71.5V8.2001C71.5 8.3001 71.5 8.5001 71.5 8.6001C71.5 9.0001 71.6 9.4001 71.9 9.6001C72.2 9.9001 72.6 10.0001 73 10.0001H74.4L72.9 16.7001H73C73.5 16.7001 74 16.5001 74.4 16.2001C74.8 15.8001 75.1 15.4001 75.2 14.9001L76.3 10.0001H79.5V9.9001C79.5 9.8001 79.5 9.6001 79.5 9.5001C79.5 9.1001 79.4 8.8001 79.1 8.5001Z" fill="white"/>
<path d="M80.3999 19.5C80.3999 18.7 81.0999 18 81.8999 18C82.6999 18 83.3999 18.7 83.3999 19.5C83.3999 20.3 82.6999 21 81.8999 21C80.9999 21 80.3999 20.3 80.3999 19.5ZM82.9999 19.5C82.9999 18.8 82.4999 18.3 81.8999 18.3C81.2999 18.3 80.7999 18.8 80.7999 19.5C80.7999 20.2 81.2999 20.7 81.8999 20.7C82.4999 20.7 82.9999 20.2 82.9999 19.5ZM81.2999 18.7H81.8999C82.2999 18.7 82.4999 18.8 82.4999 19.2C82.4999 19.5 82.2999 19.6 82.0999 19.7L82.5999 20.4H82.2999L81.8999 19.7H81.6999V20.4H81.3999V18.7H81.2999ZM81.5999 19.4H81.8999C82.0999 19.4 82.1999 19.4 82.1999 19.2C82.1999 19 81.9999 19 81.8999 19H81.5999V19.4Z" fill="#214497"/>
<path d="M86.6001 16.7V10H90.1001V10.9H87.6001V12.9H89.9001V13.7H87.6001V15.8H90.1001V16.7H86.6001Z" fill="#214497"/>
<path d="M94.7001 16.4C94.3001 16.6 93.7001 16.7 93.0001 16.7C92.2001 16.7 91.6001 16.5 91.2001 16C90.8001 15.6 90.6001 14.9 90.6001 14.2C90.6001 13.4 90.8001 12.8 91.2001 12.4C91.6001 11.9 92.2001 11.7 92.9001 11.7C93.2001 11.7 93.5001 11.7 93.7001 11.8V9.5H94.7001V16.4ZM93.7001 12.6C93.5001 12.5 93.3001 12.5 93.0001 12.5C92.6001 12.5 92.2001 12.7 92.0001 13C91.8001 13.3 91.7001 13.7 91.7001 14.3C91.7001 14.8 91.8001 15.3 92.1001 15.6C92.3001 15.9 92.7001 16.1 93.1001 16.1C93.4001 16.1 93.6001 16.1 93.8001 16V12.6H93.7001Z" fill="#214497"/>
<path d="M99.4 16.4001C98.9 16.6001 98.3 16.7001 97.5 16.7001C96.2 16.7001 95.5 16.1001 95.5 14.9001V11.6001H96.5V15.0001C96.5 15.6001 96.8 15.9001 97.5 15.9001C97.9 15.9001 98.2 15.9001 98.4 15.8001V11.7001H99.4V16.4001Z" fill="#214497"/>
<path d="M103.5 16.4001C103.2 16.6001 102.7 16.7001 102.2 16.7001C101.6 16.7001 101.1 16.5001 100.7 16.1001C100.2 15.6001 100 15.0001 100 14.1001C100 13.3001 100.2 12.6001 100.7 12.2001C101.1 11.8001 101.6 11.6001 102.2 11.6001C102.7 11.6001 103.1 11.7001 103.5 11.9001L103.2 12.6001C103 12.4001 102.7 12.4001 102.4 12.4001C102 12.4001 101.7 12.5001 101.5 12.8001C101.2 13.1001 101.1 13.5001 101.1 14.1001C101.1 14.7001 101.2 15.1001 101.5 15.4001C101.7 15.7001 102 15.8001 102.4 15.8001C102.7 15.8001 103 15.7001 103.2 15.6001L103.5 16.4001Z" fill="#214497"/>
<path d="M107.8 16.4C107.4 16.6 106.8 16.7 106 16.7C104.6 16.7 103.9 16.2 103.9 15.2C103.9 14.6 104.2 14.1 104.8 13.9C105.2 13.7 105.9 13.6 106.8 13.5V13.2C106.8 12.6 106.5 12.4 105.8 12.4C105.3 12.4 104.9 12.5 104.4 12.7L104.1 12C104.6 11.8 105.2 11.7 105.8 11.7C107.1 11.7 107.7 12.3 107.7 13.4V16.4H107.8ZM106.8 14.2C106.1 14.2 105.7 14.3 105.4 14.4C105 14.6 104.8 14.8 104.8 15.2C104.8 15.8 105.2 16 106 16C106.4 16 106.7 16 106.8 15.9V14.2Z" fill="#214497"/>
<path d="M110.9 16.5999C110.7 16.6999 110.5 16.6999 110.3 16.6999C109.4 16.6999 108.9 16.1999 108.9 15.2999V12.4999H108.2V11.7999H108.9V10.6999L109.9 10.3999V11.7999H110.9V12.4999H109.9V15.1999C109.9 15.5999 110.1 15.7999 110.6 15.7999C110.7 15.7999 110.8 15.7999 110.9 15.6999V16.5999Z" fill="#214497"/>
<path d="M112.5 10.7C112.4 10.8 112.2 10.9 112.1 10.9C112 10.9 111.8 10.8 111.7 10.7C111.6 10.6 111.5 10.5 111.5 10.3C111.5 10.1 111.6 9.99995 111.7 9.89995C111.8 9.79995 112 9.69995 112.1 9.69995C112.2 9.69995 112.4 9.79995 112.5 9.89995C112.6 9.99995 112.7 10.1 112.7 10.3C112.7 10.4 112.6 10.6 112.5 10.7ZM111.6 11.7H112.6V16.6H111.6V11.7Z" fill="#214497"/>
<path d="M117.1 16C116.7 16.5 116.2 16.7 115.5 16.7C114.8 16.7 114.3 16.5 113.9 16C113.5 15.5 113.3 14.9 113.3 14.2C113.3 13.4 113.5 12.8 113.9 12.4C114.3 11.9 114.8 11.7 115.5 11.7C116.2 11.7 116.7 11.9 117.1 12.4C117.5 12.9 117.7 13.5 117.7 14.2C117.6 14.9 117.4 15.6 117.1 16ZM116.3 12.9C116.1 12.6 115.8 12.4 115.4 12.4C115 12.4 114.7 12.6 114.5 12.9C114.3 13.2 114.2 13.6 114.2 14.2C114.2 14.8 114.3 15.2 114.5 15.5C114.7 15.8 115 16 115.4 16C115.8 16 116.1 15.8 116.3 15.5C116.5 15.2 116.6 14.8 116.6 14.2C116.6 13.6 116.5 13.2 116.3 12.9Z" fill="#214497"/>
<path d="M121.2 16.7V13.4C121.2 12.8 120.9 12.5 120.2 12.5C119.8 12.5 119.5 12.5 119.3 12.6V16.7H118.3V12C118.9 11.8 119.5 11.7 120.2 11.7C121.6 11.7 122.2 12.2 122.2 13.3V16.7H121.2Z" fill="#214497"/>
<path d="M1.8 43.4001V41.5001H2.7V35.9001H2L1.5 37.4001H0V34.1001H7.8V37.4001H6.3L5.9 35.9001H5.1V41.5001H6V43.4001H1.8Z" fill="#F27227"/>
<path d="M8.2998 38.7C8.2998 38.2 8.3998 37.7999 8.4998 37.2999C8.5998 36.7999 8.7998 36.4999 9.0998 36.0999C9.3998 35.6999 9.6998 35.3999 9.9998 35.0999C10.2998 34.7999 10.5998 34.6 10.9998 34.5C11.2998 34.3 11.6998 34.1999 12.0998 34.0999C12.4998 33.9999 12.8998 34 13.2998 34C13.8998 34 14.4998 34.0999 15.0998 34.2999C15.6998 34.4999 16.1998 34.8 16.5998 35.2C17.6998 36.2 18.2998 37.3999 18.2998 38.7999C18.2998 40.2999 17.6998 41.5 16.5998 42.4C15.6998 43.2 14.5998 43.5999 13.2998 43.5999C11.9998 43.5999 10.8998 43.2 9.9998 42.4C9.5998 42.1 9.2998 41.7 9.0998 41.4C8.7998 41 8.6998 40.6 8.4998 40.2C8.3998 39.7 8.2998 39.2 8.2998 38.7ZM10.8998 38.7C10.8998 39.2 10.9998 39.6 11.1998 40C11.3998 40.4 11.6998 40.7 12.0998 40.9C12.4998 41.1 12.8998 41.2 13.2998 41.2C13.7998 41.2 14.1998 41.1 14.4998 40.9C14.8998 40.7 15.1998 40.4 15.3998 40C15.5998 39.6 15.6998 39.2 15.6998 38.7C15.6998 38.2 15.5998 37.8 15.3998 37.4C15.1998 37 14.8998 36.7 14.4998 36.5C14.0998 36.3 13.6998 36.2 13.2998 36.2C12.8998 36.2 12.4998 36.3 12.0998 36.5C11.6998 36.7 11.3998 37 11.1998 37.4C10.9998 37.8 10.8998 38.2 10.8998 38.7ZM11.6998 33.5L12.5998 32H13.8998L14.8998 33.5H14.0998L13.2998 32.7L12.4998 33.5H11.6998ZM14.6998 32.4V31.6H14.7998C14.9998 31.6 15.0998 31.6 15.1998 31.5C15.2998 31.4 15.2998 31.3 15.2998 31.2C15.2998 31 15.1998 30.9 14.9998 30.9C14.7998 30.9 14.6998 31 14.6998 31.2H13.9998V31.1C13.9998 30.8 14.0998 30.6 14.3998 30.4C14.5998 30.3 14.7998 30.2 15.0998 30.2C15.3998 30.2 15.6998 30.3 15.8998 30.5C16.0998 30.7 16.1998 30.9 16.1998 31.2C16.1998 31.5 16.0998 31.6999 15.9998 31.7999C15.8998 31.9999 15.6998 32.0999 15.3998 32.0999V32.2999H14.6998V32.4Z" fill="#F27227"/>
<path d="M29.5999 39.9999H32.1999C31.9999 40.6999 31.5999 41.3999 31.1999 41.8999C30.6999 42.3999 30.1999 42.7999 29.4999 43.0999C28.7999 43.3999 28.0999 43.4999 27.3999 43.4999C26.0999 43.4999 24.9999 43.0999 24.0999 42.2999C23.6999 41.9999 23.3999 41.5999 23.1999 41.2999C22.8999 40.8999 22.7999 40.4999 22.5999 40.0999C22.4999 39.6999 22.3999 39.1999 22.3999 38.6999C22.3999 37.9999 22.4999 37.2999 22.7999 36.6999C23.0999 36.0999 23.4999 35.4999 23.9999 35.0999C24.8999 34.2999 25.9999 33.8999 27.2999 33.8999C27.7999 33.8999 28.2999 33.9999 28.6999 34.1999C29.0999 34.3999 29.4999 34.5999 29.7999 34.9999V34.1999H31.9999V37.7999H29.6999C29.4999 37.2999 29.1999 36.8999 28.7999 36.6999C28.3999 36.3999 27.9999 36.2999 27.3999 36.2999C26.8999 36.2999 26.4999 36.3999 26.0999 36.5999C25.6999 36.7999 25.3999 37.0999 25.1999 37.4999C24.9999 37.8999 24.8999 38.2999 24.8999 38.7999C24.8999 39.2999 24.9999 39.6999 25.1999 40.0999C25.3999 40.4999 25.6999 40.7999 26.0999 40.9999C26.4999 41.1999 26.8999 41.2999 27.2999 41.2999C28.3999 41.2999 29.0999 40.8999 29.5999 39.9999Z" fill="#F27227"/>
<path d="M32.6001 43.4001V41.5001H33.6001V35.9001H32.6001V34.1001H37.0001V35.9001H36.0001V37.6001H38.7001V35.9001H37.7001V34.1001H42.0001V35.9001H41.1001V41.5001H42.0001V43.4001H37.7001V41.5001H38.7001V39.5001H36.0001V41.5001H37.0001V43.4001H32.6001Z" fill="#F27227"/>
<path d="M43.4 40.2001V36.0001H42.5V34.1001H46.8V36.0001H45.8V39.9001C45.8 40.4001 45.9 40.7001 46.2 41.0001C46.5 41.3001 46.8 41.4001 47.3 41.4001C47.8 41.4001 48.1 41.3001 48.4 41.0001C48.6 40.8001 48.8 40.4001 48.8 39.9001V36.0001H47.8V34.1001H51.2V35.6001C51.4 35.6001 51.6 35.5001 51.8 35.4001C52 35.3001 52 35.1001 52 35.0001H51.7V34.1001H52.7V35.2001C52.6 35.5001 52.4 35.7001 52.1 35.9001C51.7 36.1001 51.4 36.2001 51.2 36.2001V40.2001C51.2 40.7001 51.1 41.2001 50.9 41.6001C50.7 42.0001 50.5 42.4001 50.1 42.7001C49.8 43.0001 49.3 43.2001 48.9 43.4001C48.4 43.6001 47.9 43.6001 47.3 43.6001C46.7 43.6001 46.2 43.5001 45.7 43.4001C45.2 43.2001 44.8 43.0001 44.5 42.7001C44.2 42.4001 43.9 42.0001 43.7 41.6001C43.5 41.1001 43.4 40.7001 43.4 40.2001ZM48.9 31.6001L47.5 33.2001H46.8L47.6 31.6001H48.9Z" fill="#F27227"/>
<path d="M59.7 39.9999H62.3C62.1 40.6999 61.7 41.3999 61.3 41.8999C60.8 42.3999 60.3 42.7999 59.6 43.0999C58.9 43.3999 58.2 43.4999 57.5 43.4999C56.2 43.4999 55.1 43.0999 54.2 42.2999C53.8 41.9999 53.5 41.5999 53.3 41.2999C53 40.8999 52.9 40.4999 52.7 40.0999C52.6 39.6999 52.5 39.1999 52.5 38.6999C52.5 37.9999 52.6 37.2999 52.9 36.6999C53.2 36.0999 53.6 35.4999 54.1 35.0999C55 34.2999 56.1 33.8999 57.4 33.8999C57.9 33.8999 58.4 33.9999 58.8 34.1999C59.2 34.3999 59.6 34.5999 59.9 34.9999V34.1999H62.1V37.7999H59.8C59.6 37.2999 59.3 36.8999 58.9 36.6999C58.5 36.3999 58.1 36.2999 57.5 36.2999C57 36.2999 56.6 36.3999 56.2 36.5999C55.8 36.7999 55.5 37.0999 55.3 37.4999C55.1 37.8999 55 38.2999 55 38.7999C55 39.2999 55.1 39.6999 55.3 40.0999C55.5 40.4999 55.8 40.7999 56.2 40.9999C56.6 41.1999 57 41.2999 57.4 41.2999C58.4 41.2999 59.2 40.8999 59.7 39.9999Z" fill="#F27227"/>
<path d="M73.1998 40.0001H71.9998V38.3001H76.6998V40.0001H75.8998V43.4001H73.8998V42.2001C73.1998 43.1001 72.1998 43.6001 70.9998 43.6001C70.5998 43.6001 70.1998 43.6001 69.8998 43.5001C69.4998 43.4001 69.1998 43.3001 68.7998 43.1001C68.4998 42.9001 68.1998 42.7001 67.8998 42.5001C67.3998 42.0001 66.9998 41.5001 66.6998 40.8001C66.3998 40.2001 66.2998 39.5001 66.2998 38.8001C66.2998 38.3001 66.3998 37.8001 66.4998 37.4001C66.5998 37.0001 66.7998 36.5001 67.0998 36.2001C67.3998 35.8001 67.6998 35.5001 67.9998 35.2001C68.3998 34.8001 68.8998 34.6001 69.3998 34.4001C69.8998 34.2001 70.4998 34.1001 71.0998 34.1001C72.0998 34.1001 72.7998 34.4001 73.3998 34.9001V34.2001H75.5998V37.4001H73.2998C72.9998 36.6001 72.2998 36.2001 71.3998 36.2001C71.0998 36.2001 70.6998 36.3001 70.3998 36.4001C70.0998 36.5001 69.8998 36.7001 69.5998 36.9001C69.2998 37.1001 69.1998 37.4001 69.0998 37.7001C68.9998 38.0001 68.8998 38.4001 68.8998 38.7001C68.8998 39.1001 68.9998 39.4001 69.0998 39.7001C69.1998 40.0001 69.3998 40.3001 69.5998 40.5001C69.7998 40.7001 70.0998 40.9001 70.3998 41.0001C70.6998 41.1001 70.9998 41.2001 71.3998 41.2001C71.7998 41.2001 72.1998 41.1001 72.5998 40.9001C72.6998 40.7001 72.9998 40.4001 73.1998 40.0001Z" fill="#F27227"/>
<path d="M77.1001 43.4001V41.5001H78.1001V35.9001H77.1001V34.1001H81.4001V35.9001H80.5001V41.5001H81.4001V43.4001H77.1001Z" fill="#F27227"/>
<path d="M81.7998 43.4001V41.5H82.5998L84.2998 35.9001H83.3998V34H89.8998V35.9001H88.9998L90.6998 41.5H91.4998V43.4001H87.3998V41.5H88.1998L87.7998 40.3H85.2998L84.9998 41.5H85.7998V43.4001H81.7998ZM85.6998 38.6H87.4998L86.5998 35.7001L85.6998 38.6ZM88.4998 31.8L87.0998 33.4001H86.3998L87.1998 31.8H88.4998Z" fill="#F27227"/>
<path d="M91.7998 38.7C91.7998 38.2 91.8998 37.8 91.9998 37.3C92.0998 36.9 92.2998 36.5 92.5998 36.1C92.8998 35.7 93.1998 35.4 93.4998 35.1C93.7998 34.8 94.0998 34.6 94.4998 34.5C94.7998 34.3 95.1998 34.2 95.5998 34.1C95.9998 34 96.3998 34 96.7998 34C97.3998 34 97.9998 34.1 98.5998 34.3C99.1998 34.5 99.6998 34.8 100.1 35.2C101.2 36.2 101.8 37.4 101.8 38.8C101.8 40.2 101.2 41.5 100.1 42.4C99.1998 43.2 98.0998 43.6 96.7998 43.6C95.4998 43.6 94.3998 43.2 93.4998 42.4C93.0998 42.1 92.7998 41.7 92.5998 41.4C92.2998 41 92.1998 40.6 91.9998 40.2C91.8998 39.7 91.7998 39.2 91.7998 38.7ZM94.3998 38.7C94.3998 39.2 94.4998 39.6 94.6998 40C94.8998 40.4 95.1998 40.7 95.5998 40.9C95.9998 41.1 96.3998 41.2 96.7998 41.2C97.2998 41.2 97.6998 41.1 97.9998 40.9C98.3998 40.7 98.6998 40.4 98.8998 40C99.0998 39.6 99.1998 39.2 99.1998 38.7C99.1998 38.2 99.0998 37.8 98.8998 37.4C98.6998 37 98.3998 36.7 97.9998 36.5C97.5998 36.3 97.1998 36.2 96.7998 36.2C96.3998 36.2 95.9998 36.3 95.5998 36.5C95.1998 36.7 94.8998 37 94.6998 37.4C94.4998 37.8 94.3998 38.2 94.3998 38.7Z" fill="#F27227"/>
<path d="M105.9 43.4V41.5H106.8V35.9H105.9V34H110.3C110.9 34 111.5 34 112 34.1C112.5 34.2 112.8 34.3 113.1 34.4C113.9 34.8 114.5 35.4 114.9 36.1C115.3 36.8 115.5 37.6 115.5 38.6C115.5 39.3 115.4 39.9 115.2 40.4C115 40.9 114.8 41.4 114.4 41.8C114 42.2 113.6 42.5 113.1 42.8C112.8 42.9 112.4 43.1 112 43.1C111.5 43.2 111 43.2 110.3 43.2H105.9V43.4ZM109.3 35.9V41.5H110C110.6 41.5 111.2 41.4 111.6 41.2C112 41 112.4 40.7 112.6 40.3C112.8 39.9 112.9 39.4 112.9 38.8C112.9 38.2 112.8 37.7 112.6 37.3C112.4 36.9 112 36.6 111.6 36.4C111.2 36.2 110.6 36.1 110 36.1H109.3V35.9Z" fill="#F27227"/>
<path d="M116.8 40.2001V36.0001H115.9V34.1001H120.2V36.0001H119.2V39.9001C119.2 40.4001 119.3 40.7001 119.6 41.0001C119.9 41.3001 120.2 41.4001 120.7 41.4001C121.2 41.4001 121.5 41.3001 121.8 41.0001C122 40.8001 122.2 40.4001 122.2 39.9001V36.0001H121.2V34.1001H125.5V36.0001H124.6V40.2001C124.6 40.7001 124.5 41.2001 124.3 41.6001C124.1 42.0001 123.9 42.4001 123.5 42.7001C123.2 43.0001 122.7 43.2001 122.3 43.4001C121.8 43.6001 121.3 43.6001 120.7 43.6001C120.1 43.6001 119.6 43.5001 119.1 43.4001C118.6 43.2001 118.2 43.0001 117.9 42.7001C117.6 42.4001 117.3 42.0001 117.1 41.6001C116.9 41.1001 116.8 40.7001 116.8 40.2001ZM120 44.4001H121.2V45.6001H120V44.4001Z" fill="#F27227"/>
<path d="M133.1 39.9999H135.7C135.5 40.6999 135.1 41.3999 134.7 41.8999C134.2 42.3999 133.7 42.7999 133 43.0999C132.3 43.3999 131.6 43.4999 130.9 43.4999C129.6 43.4999 128.5 43.0999 127.6 42.2999C127.2 41.9999 126.9 41.5999 126.7 41.2999C126.4 40.8999 126.3 40.4999 126.1 40.0999C126 39.6999 125.9 39.1999 125.9 38.6999C125.9 37.9999 126 37.2999 126.3 36.6999C126.6 36.0999 127 35.4999 127.5 35.0999C128.4 34.2999 129.5 33.8999 130.8 33.8999C131.3 33.8999 131.8 33.9999 132.2 34.1999C132.6 34.3999 133 34.5999 133.3 34.9999V34.1999H135.5V37.7999H133.2C133 37.2999 132.7 36.8999 132.3 36.6999C131.9 36.3999 131.5 36.2999 130.9 36.2999C130.4 36.2999 130 36.3999 129.6 36.5999C129.2 36.7999 128.9 37.0999 128.7 37.4999C128.5 37.8999 128.4 38.2999 128.4 38.7999C128.4 39.2999 128.5 39.6999 128.7 40.0999C128.9 40.4999 129.2 40.7999 129.6 40.9999C130 41.1999 130.4 41.2999 130.8 41.2999C131.8 41.2999 132.6 40.8999 133.1 39.9999Z" fill="#F27227"/>
<path d="M139.7 43.4001V41.5001H140.6V35.9001H139.7V34.1001H147.8V37.5001H146.2L145.7 35.9001H143V37.5001H144.7V39.5001H143V41.5001H144.2V43.4001H139.7Z" fill="#F27227"/>
<path d="M148.3 43.4V41.5H149.2V35.9H148.3V34H153C153.6 34 154.2 34.1 154.7 34.4C155.2 34.6 155.5 35 155.8 35.4C156.1 35.8 156.2 36.4 156.2 36.9C156.2 37.3 156.1 37.7 156 38.1C155.9 38.5 155.6 38.8 155.4 39C155.1 39.3 154.8 39.5 154.4 39.6C154 39.7 153.6 39.8 153.1 39.8H151.7V41.3H152.7V43.2H148.3V43.4ZM151.7 35.9V38.2H152.3C153.3 38.2 153.8 37.8 153.8 37.1C153.8 36.3 153.3 36 152.3 36H151.7V35.9Z" fill="#F27227"/>
<path d="M158.4 43.4001V41.5001H159.4V35.9001H158.6L158.2 37.4001H156.7V34.1001H164.5V37.4001H163L162.5 35.9001H161.8V41.5001H162.7V43.4001H158.4Z" fill="#F27227"/>
</g>
<defs>
<clipPath id="clip0_28_554">
<rect width="164.5" height="45.6" fill="white"/>
</clipPath>
</defs>
</svg>
