<svg width="30" height="30" viewBox="0 0 30 30" fill="none" xmlns="http://www.w3.org/2000/svg">
<path d="M14.9999 1.76465V10.3361C14.9999 10.9044 15.2257 11.4494 15.6276 11.8513C16.0294 12.2532 16.5745 12.4789 17.1428 12.4789H25.7142V25.3361C25.7142 25.9044 25.4884 26.4494 25.0866 26.8513C24.6847 27.2532 24.1397 27.4789 23.5714 27.4789H13.4999C14.9319 26.1542 15.833 24.3537 16.0352 22.4135C16.2375 20.4732 15.727 18.5257 14.599 16.9341C13.4711 15.3425 11.8027 14.2155 9.90501 13.7635C8.00735 13.3114 6.01004 13.5651 4.28564 14.4771V3.90751C4.28564 3.33918 4.51141 2.79414 4.91327 2.39228C5.31514 1.99041 5.86018 1.76465 6.4285 1.76465H14.9999Z" fill="white"/>
<path d="M16.6072 2.30029V10.336C16.6072 10.4781 16.6636 10.6143 16.7641 10.7148C16.8646 10.8153 17.0008 10.8717 17.1429 10.8717H25.1786L16.6072 2.30029Z" fill="white"/>
<path fill-rule="evenodd" clip-rule="evenodd" d="M15 21.5859C15 23.4329 14.2662 25.2043 12.9602 26.5104C11.6541 27.8164 9.88274 28.5502 8.0357 28.5502C6.18865 28.5502 4.41726 27.8164 3.1112 26.5104C1.80515 25.2043 1.07141 23.4329 1.07141 21.5859C1.07141 19.7388 1.80515 17.9674 3.1112 16.6614C4.41726 15.3553 6.18865 14.6216 8.0357 14.6216C9.88274 14.6216 11.6541 15.3553 12.9602 16.6614C14.2662 17.9674 15 19.7388 15 21.5859ZM10.6525 19.0413C10.7216 19.0702 10.7844 19.1134 10.8372 19.1681C10.9396 19.275 10.9985 19.4195 10.9999 19.5705C11.0012 19.7216 10.9457 19.8672 10.8453 19.9761L7.89832 23.8158C7.84769 23.8725 7.7866 23.9181 7.71871 23.9497C7.65083 23.9813 7.57753 23.9983 7.50319 23.9997C7.42886 24.0012 7.355 23.987 7.28604 23.958C7.21708 23.9291 7.15441 23.8859 7.10179 23.8312L5.14848 21.7944C5.05068 21.685 4.99744 21.5403 4.99997 21.3908C5.0025 21.2412 5.06061 21.0986 5.16205 20.9929C5.26349 20.8871 5.40034 20.8266 5.54378 20.8239C5.68721 20.8213 5.82603 20.8768 5.93099 20.9787L7.47607 22.59L10.0399 19.1851C10.0904 19.1281 10.1515 19.0824 10.2194 19.0505C10.2873 19.0187 10.3606 19.0015 10.4351 18.9999C10.5095 18.9984 10.5835 19.0124 10.6525 19.0413Z" fill="white"/>
</svg>
