<svg width="101" height="16" viewBox="0 0 101 16" fill="none" xmlns="http://www.w3.org/2000/svg">
<path d="M100.354 8.35355C100.549 8.15829 100.549 7.84171 100.354 7.64645L97.1716 4.46447C96.9763 4.2692 96.6597 4.2692 96.4645 4.46447C96.2692 4.65973 96.2692 4.97631 96.4645 5.17157L99.2929 8L96.4645 10.8284C96.2692 11.0237 96.2692 11.3403 96.4645 11.5355C96.6597 11.7308 96.9763 11.7308 97.1716 11.5355L100.354 8.35355ZM0 8.5H1.92308V7.5H0V8.5ZM5.76923 8.5H9.61539V7.5H5.76923V8.5ZM13.4615 8.5H17.3077V7.5H13.4615V8.5ZM21.1538 8.5H25V7.5H21.1538V8.5ZM28.8462 8.5H32.6923V7.5H28.8462V8.5ZM36.5385 8.5H40.3846V7.5H36.5385V8.5ZM44.2308 8.5H48.0769V7.5H44.2308V8.5ZM51.9231 8.5H55.7692V7.5H51.9231V8.5ZM59.6154 8.5H63.4615V7.5H59.6154V8.5ZM67.3077 8.5H71.1538V7.5H67.3077V8.5ZM75 8.5H78.8461V7.5H75V8.5ZM82.6923 8.5H86.5385V7.5H82.6923V8.5ZM90.3846 8.5H94.2308V7.5H90.3846V8.5ZM98.0769 8.5H100V7.5H98.0769V8.5ZM100.707 8.70711C101.098 8.31658 101.098 7.68342 100.707 7.29289L94.3431 0.928932C93.9526 0.538408 93.3195 0.538408 92.9289 0.928932C92.5384 1.31946 92.5384 1.95262 92.9289 2.34315L98.5858 8L92.9289 13.6569C92.5384 14.0474 92.5384 14.6805 92.9289 15.0711C93.3195 15.4616 93.9526 15.4616 94.3431 15.0711L100.707 8.70711ZM0 9H1.92308V7H0V9ZM5.76923 9H9.61539V7H5.76923V9ZM13.4615 9H17.3077V7H13.4615V9ZM21.1538 9H25V7H21.1538V9ZM28.8462 9H32.6923V7H28.8462V9ZM36.5385 9H40.3846V7H36.5385V9ZM44.2308 9H48.0769V7H44.2308V9ZM51.9231 9H55.7692V7H51.9231V9ZM59.6154 9H63.4615V7H59.6154V9ZM67.3077 9H71.1538V7H67.3077V9ZM75 9H78.8461V7H75V9ZM82.6923 9H86.5385V7H82.6923V9ZM90.3846 9H94.2308V7H90.3846V9ZM98.0769 9H100V7H98.0769V9Z" fill="#BDBDBD"/>
</svg>
