<svg width="38" height="42" viewBox="0 0 38 42" fill="none" xmlns="http://www.w3.org/2000/svg">
<path d="M21.3649 0V13.44C21.3649 14.3311 21.7112 15.1858 22.3276 15.8159C22.9441 16.446 23.7801 16.8 24.6519 16.8H37.7999V36.96C37.7999 37.8511 37.4536 38.7058 36.8372 39.3359C36.2208 39.966 35.3847 40.32 34.5129 40.32H19.064C21.2605 38.2427 22.6427 35.4197 22.9529 32.3774C23.2632 29.335 22.4801 26.2813 20.7499 23.7856C19.0197 21.29 16.4605 19.523 13.5496 18.8141C10.6387 18.1053 7.57493 18.503 4.92981 19.9332V3.36C4.92981 2.46887 5.27612 1.61424 5.89255 0.984121C6.50899 0.353999 7.34505 0 8.21682 0H21.3649Z" fill="white"/>
<path d="M23.8315 0.839981V13.44C23.8315 13.6628 23.9181 13.8764 24.0722 14.0339C24.2263 14.1915 24.4354 14.28 24.6533 14.28H36.9796L23.8315 0.839981Z" fill="white"/>
<path fill-rule="evenodd" clip-rule="evenodd" d="M18.2367 38.8016C20.2401 36.7537 21.3656 33.9762 21.3656 31.08C21.3656 28.1839 20.2401 25.4063 18.2367 23.3584C16.2333 21.3105 13.516 20.16 10.6828 20.16C7.84954 20.16 5.13233 21.3105 3.12892 23.3584C1.12551 25.4063 0 28.1839 0 31.08C0 33.9762 1.12551 36.7537 3.12892 38.8016C5.13233 40.8495 7.84954 42 10.6828 42C13.516 42 16.2333 40.8495 18.2367 38.8016ZM11.2639 23.1731C11.418 23.3306 11.5045 23.5443 11.5045 23.7671V30.24H15.2749C15.4929 30.24 15.7019 30.3285 15.856 30.486C16.0101 30.6436 16.0967 30.8572 16.0967 31.08C16.0967 31.3028 16.0101 31.5165 15.856 31.674C15.7019 31.8315 15.4929 31.92 15.2749 31.92H11.5045H9.86104V23.7671C9.86104 23.5443 9.94762 23.3306 10.1017 23.1731C10.2558 23.0156 10.4649 22.9271 10.6828 22.9271C10.9007 22.9271 11.1098 23.0156 11.2639 23.1731Z" fill="white"/>
</svg>
