<svg width="30" height="30" viewBox="0 0 30 30" fill="none" xmlns="http://www.w3.org/2000/svg">
<path d="M14.9999 1.76465V10.3361C14.9999 10.9044 15.2257 11.4494 15.6276 11.8513C16.0294 12.2532 16.5745 12.4789 17.1428 12.4789H25.7131L25.7142 12.5625V24.9075C25.7142 25.5895 25.4433 26.2435 24.9611 26.7258C24.4788 27.208 23.8248 27.4789 23.1428 27.4789H6.85707C6.17509 27.4789 5.52104 27.208 5.0388 26.7258C4.55656 26.2435 4.28564 25.5895 4.28564 24.9075V4.33608C4.28564 3.65409 4.55656 3.00004 5.0388 2.5178C5.52104 2.03557 6.17509 1.76465 6.85707 1.76465H14.9999ZM16.6071 2.27358V10.3361C16.6071 10.4782 16.6635 10.6144 16.764 10.7149C16.8644 10.8154 17.0007 10.8718 17.1428 10.8718H25.1806C25.0826 10.7317 24.9726 10.6005 24.8517 10.4796L16.8899 2.51786C16.8017 2.42968 16.7072 2.34804 16.6071 2.27358Z" fill="white"/>
</svg>
