<svg width="30" height="30" viewBox="0 0 30 30" fill="none" xmlns="http://www.w3.org/2000/svg">
<path d="M15.0001 1.76465V10.3361C15.0001 10.9044 15.2258 11.4494 15.6277 11.8513C16.0295 12.2532 16.5746 12.4789 17.1429 12.4789H25.7133L25.7143 12.5625V24.9075C25.7143 25.5895 25.4434 26.2435 24.9612 26.7258C24.4789 27.208 23.8249 27.4789 23.1429 27.4789H6.8572C6.17521 27.4789 5.52116 27.208 5.03892 26.7258C4.55668 26.2435 4.28577 25.5895 4.28577 24.9075V4.33608C4.28577 3.65409 4.55668 3.00004 5.03892 2.5178C5.52116 2.03557 6.17521 1.76465 6.8572 1.76465H15.0001ZM16.6072 2.27358V10.3361C16.6072 10.4782 16.6636 10.6144 16.7641 10.7149C16.8646 10.8154 17.0008 10.8718 17.1429 10.8718H25.1808C25.0828 10.7317 24.9727 10.6005 24.8518 10.4796L16.8901 2.51786C16.8018 2.42968 16.7073 2.34804 16.6072 2.27358Z" fill="#0066B2"/>
</svg>
